<svg viewBox="0 0 200 200" xmlns="http://www.w3.org/2000/svg">
<rect x="0" y="0" width="200" height="200" fill="#ffffff"/>
<g stroke-width="0.5" opacity="0.45">
<line x1="88.5" y1="106.5" x2="82.5" y2="106.5" stroke="#9c1f3f"/>
<line x1="88.5" y1="106.5" x2="88.5" y2="100.5" stroke="#9c1f3f"/>
<line x1="97.5" y1="151.5" x2="97.5" y2="145.5" stroke="#1d5c5c"/>
<line x1="97.5" y1="151.5" x2="97.5" y2="157.5" stroke="#1d5c5c"/>
<line x1="121.5" y1="109.5" x2="118.5" y2="118.5" stroke="#1d5c5c"/>
<line x1="97.5" y1="67.5" x2="91.5" y2="67.5" stroke="#1d5c5c"/>
<line x1="97.5" y1="67.5" x2="97.5" y2="61.5" stroke="#1d5c5c"/>
<line x1="91.5" y1="67.5" x2="88.5" y2="64.5" stroke="#1d5c5c"/>
<line x1="91.5" y1="67.5" x2="91.5" y2="61.5" stroke="#1d5c5c"/>
<line x1="118.5" y1="124.5" x2="118.5" y2="118.5" stroke="#9c1f3f"/>
<line x1="118.5" y1="124.5" x2="112.5" y2="118.5" stroke="#9c1f3f"/>
<line x1="88.5" y1="112.5" x2="88.5" y2="106.5" stroke="#9c1f3f"/>
<line x1="88.5" y1="112.5" x2="82.5" y2="106.5" stroke="#9c1f3f"/>
<line x1="97.5" y1="145.5" x2="106.5" y2="148.5" stroke="#9c1f3f"/>
<line x1="91.5" y1="55.5" x2="94.5" y2="58.5" stroke="#1d5c5c"/>
<line x1="91.5" y1="55.5" x2="88.5" y2="58.5" stroke="#1d5c5c"/>
<line x1="82.5" y1="106.5" x2="79.5" y2="103.5" stroke="#1d5c5c"/>
<line x1="82.5" y1="106.5" x2="79.5" y2="109.5" stroke="#1d5c5c"/>
<line x1="112.5" y1="82.5" x2="106.5" y2="82.5" stroke="#9c1f3f"/>
<line x1="112.5" y1="82.5" x2="112.5" y2="76.5" stroke="#9c1f3f"/>
<line x1="91.5" y1="61.5" x2="94.5" y2="58.5" stroke="#1d5c5c"/>
<line x1="91.5" y1="61.5" x2="88.5" y2="58.5" stroke="#1d5c5c"/>
<line x1="79.5" y1="55.5" x2="79.5" y2="61.5" stroke="#1d5c5c"/>
<line x1="79.5" y1="55.5" x2="85.5" y2="61.5" stroke="#1d5c5c"/>
<line x1="73.5" y1="43.5" x2="64.5" y2="40.5" stroke="#1d5c5c"/>
<line x1="73.5" y1="43.5" x2="64.5" y2="46.5" stroke="#1d5c5c"/>
<line x1="103.5" y1="97.5" x2="106.5" y2="88.5" stroke="#9c1f3f"/>
<line x1="70.5" y1="64.5" x2="73.5" y2="67.5" stroke="#9c1f3f"/>
<line x1="70.5" y1="64.5" x2="70.5" y2="58.5" stroke="#9c1f3f"/>
<line x1="64.5" y1="34.5" x2="61.5" y2="31.5" stroke="#1d5c5c"/>
<line x1="64.5" y1="34.5" x2="61.5" y2="37.5" stroke="#1d5c5c"/>
<line x1="136.5" y1="100.5" x2="133.5" y2="103.5" stroke="#1a1a1a"/>
<line x1="136.5" y1="100.5" x2="136.5" y2="94.5" stroke="#1a1a1a"/>
<line x1="118.5" y1="76.5" x2="112.5" y2="76.5" stroke="#9c1f3f"/>
<line x1="118.5" y1="76.5" x2="112.5" y2="70.5" stroke="#9c1f3f"/>
<line x1="64.5" y1="40.5" x2="61.5" y2="37.5" stroke="#1d5c5c"/>
<line x1="64.5" y1="40.5" x2="61.5" y2="43.5" stroke="#1d5c5c"/>
<line x1="58.5" y1="40.5" x2="61.5" y2="37.5" stroke="#9c1f3f"/>
<line x1="58.5" y1="40.5" x2="61.5" y2="43.5" stroke="#9c1f3f"/>
<line x1="70.5" y1="106.5" x2="64.5" y2="106.5" stroke="#9c1f3f"/>
<line x1="70.5" y1="106.5" x2="79.5" y2="103.5" stroke="#9c1f3f"/>
<line x1="106.5" y1="82.5" x2="106.5" y2="76.5" stroke="#1d5c5c"/>
<line x1="106.5" y1="82.5" x2="106.5" y2="88.5" stroke="#1d5c5c"/>
<line x1="112.5" y1="118.5" x2="118.5" y2="118.5" stroke="#1a1a1a"/>
<line x1="136.5" y1="94.5" x2="133.5" y2="103.5" stroke="#1d5c5c"/>
<line x1="97.5" y1="73.5" x2="91.5" y2="73.5" stroke="#1d5c5c"/>
<line x1="97.5" y1="73.5" x2="97.5" y2="67.5" stroke="#1d5c5c"/>
<line x1="88.5" y1="64.5" x2="91.5" y2="61.5" stroke="#1d5c5c"/>
<line x1="112.5" y1="70.5" x2="115.5" y2="67.5" stroke="#1d5c5c"/>
<line x1="112.5" y1="70.5" x2="112.5" y2="76.5" stroke="#1d5c5c"/>
<line x1="88.5" y1="82.5" x2="88.5" y2="88.5" stroke="#1a1a1a"/>
<line x1="88.5" y1="82.5" x2="79.5" y2="79.5" stroke="#1a1a1a"/>
<line x1="52.5" y1="58.5" x2="58.5" y2="58.5" stroke="#9c1f3f"/>
<line x1="52.5" y1="58.5" x2="61.5" y2="61.5" stroke="#9c1f3f"/>
<line x1="112.5" y1="76.5" x2="106.5" y2="76.5" stroke="#1a1a1a"/>
<line x1="154.5" y1="82.5" x2="154.5" y2="76.5" stroke="#1d5c5c"/>
<line x1="154.5" y1="82.5" x2="145.5" y2="85.5" stroke="#1d5c5c"/>
<line x1="97.5" y1="61.5" x2="94.5" y2="58.5" stroke="#1d5c5c"/>
<line x1="97.5" y1="61.5" x2="91.5" y2="61.5" stroke="#1d5c5c"/>
<line x1="70.5" y1="76.5" x2="70.5" y2="82.5" stroke="#9c1f3f"/>
<line x1="70.5" y1="76.5" x2="64.5" y2="70.5" stroke="#9c1f3f"/>
<line x1="49.5" y1="31.5" x2="40.5" y2="34.5" stroke="#9c1f3f"/>
<line x1="49.5" y1="31.5" x2="52.5" y2="40.5" stroke="#9c1f3f"/>
<line x1="91.5" y1="73.5" x2="91.5" y2="67.5" stroke="#9c1f3f"/>
<line x1="85.5" y1="61.5" x2="88.5" y2="58.5" stroke="#9c1f3f"/>
<line x1="85.5" y1="61.5" x2="88.5" y2="64.5" stroke="#9c1f3f"/>
<line x1="64.5" y1="70.5" x2="61.5" y2="67.5" stroke="#1d5c5c"/>
<line x1="64.5" y1="70.5" x2="58.5" y2="70.5" stroke="#1d5c5c"/>
<line x1="121.5" y1="97.5" x2="118.5" y2="94.5" stroke="#1d5c5c"/>
<line x1="121.5" y1="97.5" x2="118.5" y2="88.5" stroke="#1d5c5c"/>
<line x1="106.5" y1="88.5" x2="112.5" y2="82.5" stroke="#1d5c5c"/>
<line x1="61.5" y1="61.5" x2="58.5" y2="58.5" stroke="#9c1f3f"/>
<line x1="61.5" y1="61.5" x2="61.5" y2="67.5" stroke="#9c1f3f"/>
<line x1="79.5" y1="103.5" x2="79.5" y2="109.5" stroke="#9c1f3f"/>
<line x1="106.5" y1="76.5" x2="103.5" y2="73.5" stroke="#1a1a1a"/>
<line x1="79.5" y1="127.5" x2="79.5" y2="121.5" stroke="#9c1f3f"/>
<line x1="79.5" y1="79.5" x2="70.5" y2="76.5" stroke="#9c1f3f"/>
<line x1="79.5" y1="79.5" x2="70.5" y2="82.5" stroke="#9c1f3f"/>
<line x1="64.5" y1="46.5" x2="61.5" y2="43.5" stroke="#9c1f3f"/>
<line x1="64.5" y1="46.5" x2="64.5" y2="40.5" stroke="#9c1f3f"/>
<line x1="58.5" y1="70.5" x2="61.5" y2="67.5" stroke="#9c1f3f"/>
<line x1="58.5" y1="88.5" x2="52.5" y2="88.5" stroke="#1d5c5c"/>
<line x1="70.5" y1="118.5" x2="79.5" y2="115.5" stroke="#9c1f3f"/>
<line x1="70.5" y1="118.5" x2="79.5" y2="121.5" stroke="#9c1f3f"/>
<line x1="103.5" y1="67.5" x2="97.5" y2="67.5" stroke="#1d5c5c"/>
<line x1="103.5" y1="67.5" x2="103.5" y2="73.5" stroke="#1d5c5c"/>
<line x1="70.5" y1="88.5" x2="70.5" y2="82.5" stroke="#1d5c5c"/>
<line x1="88.5" y1="100.5" x2="82.5" y2="106.5" stroke="#9c1f3f"/>
<line x1="70.5" y1="58.5" x2="61.5" y2="61.5" stroke="#9c1f3f"/>
<line x1="52.5" y1="40.5" x2="58.5" y2="40.5" stroke="#9c1f3f"/>
<line x1="106.5" y1="148.5" x2="97.5" y2="151.5" stroke="#1d5c5c"/>
<line x1="115.5" y1="67.5" x2="115.5" y2="61.5" stroke="#1d5c5c"/>
<line x1="82.5" y1="70.5" x2="88.5" y2="64.5" stroke="#9c1f3f"/>
<line x1="82.5" y1="70.5" x2="79.5" y2="61.5" stroke="#9c1f3f"/>
<line x1="79.5" y1="61.5" x2="85.5" y2="61.5" stroke="#1a1a1a"/>
<line x1="115.5" y1="61.5" x2="112.5" y2="70.5" stroke="#1d5c5c"/>
<line x1="61.5" y1="31.5" x2="61.5" y2="37.5" stroke="#1d5c5c"/>
<line x1="118.5" y1="94.5" x2="118.5" y2="88.5" stroke="#9c1f3f"/>
<line x1="79.5" y1="121.5" x2="79.5" y2="115.5" stroke="#9c1f3f"/>
<line x1="79.5" y1="115.5" x2="79.5" y2="109.5" stroke="#1a1a1a"/>
<line x1="88.5" y1="46.5" x2="91.5" y2="55.5" stroke="#1d5c5c"/>
<line x1="73.5" y1="67.5" x2="79.5" y2="61.5" stroke="#9c1f3f"/>
<line x1="97.5" y1="109.5" x2="88.5" y2="106.5" stroke="#1d5c5c"/>
<line x1="97.5" y1="109.5" x2="88.5" y2="112.5" stroke="#1d5c5c"/>
<line x1="118.5" y1="88.5" x2="112.5" y2="82.5" stroke="#9c1f3f"/>
</g>
<g opacity="0.9">
<circle cx="88.5" cy="106.5" r="1.3" fill="#9c1f3f"/>
<circle cx="97.5" cy="151.5" r="1.3" fill="#1d5c5c"/>
<circle cx="121.5" cy="109.5" r="1.3" fill="#1d5c5c"/>
<circle cx="97.5" cy="181.5" r="1.3" fill="#1d5c5c"/>
<circle cx="97.5" cy="121.5" r="1.3" fill="#1a1a1a"/>
<circle cx="97.5" cy="67.5" r="1.3" fill="#1d5c5c"/>
<circle cx="91.5" cy="67.5" r="1.3" fill="#1d5c5c"/>
<circle cx="118.5" cy="124.5" r="1.3" fill="#9c1f3f"/>
<circle cx="88.5" cy="112.5" r="1.3" fill="#9c1f3f"/>
<circle cx="97.5" cy="145.5" r="1.3" fill="#9c1f3f"/>
<circle cx="91.5" cy="55.5" r="1.3" fill="#1d5c5c"/>
<circle cx="82.5" cy="106.5" r="1.3" fill="#1d5c5c"/>
<circle cx="112.5" cy="82.5" r="1.3" fill="#9c1f3f"/>
<circle cx="91.5" cy="61.5" r="1.3" fill="#1d5c5c"/>
<circle cx="79.5" cy="55.5" r="1.3" fill="#1d5c5c"/>
<circle cx="73.5" cy="43.5" r="1.3" fill="#1d5c5c"/>
<circle cx="103.5" cy="97.5" r="1.3" fill="#9c1f3f"/>
<circle cx="97.5" cy="157.5" r="1.3" fill="#1a1a1a"/>
<circle cx="70.5" cy="64.5" r="1.3" fill="#9c1f3f"/>
<circle cx="64.5" cy="34.5" r="1.3" fill="#1d5c5c"/>
<circle cx="136.5" cy="100.5" r="1.3" fill="#1a1a1a"/>
<circle cx="118.5" cy="76.5" r="1.3" fill="#9c1f3f"/>
<circle cx="64.5" cy="40.5" r="1.3" fill="#1d5c5c"/>
<circle cx="58.5" cy="40.5" r="1.3" fill="#9c1f3f"/>
<circle cx="61.5" cy="37.5" r="1.3" fill="#1d5c5c"/>
<circle cx="58.5" cy="136.5" r="1.3" fill="#9c1f3f"/>
<circle cx="70.5" cy="106.5" r="1.3" fill="#9c1f3f"/>
<circle cx="94.5" cy="58.5" r="1.3" fill="#1d5c5c"/>
<circle cx="106.5" cy="82.5" r="1.3" fill="#1d5c5c"/>
<circle cx="112.5" cy="118.5" r="1.3" fill="#1a1a1a"/>
<circle cx="136.5" cy="94.5" r="1.3" fill="#1d5c5c"/>
<circle cx="97.5" cy="73.5" r="1.3" fill="#1d5c5c"/>
<circle cx="88.5" cy="64.5" r="1.3" fill="#1d5c5c"/>
<circle cx="112.5" cy="70.5" r="1.3" fill="#1d5c5c"/>
<circle cx="88.5" cy="82.5" r="1.3" fill="#1a1a1a"/>
<circle cx="154.5" cy="100.5" r="1.3" fill="#1d5c5c"/>
<circle cx="52.5" cy="58.5" r="1.3" fill="#9c1f3f"/>
<circle cx="112.5" cy="76.5" r="1.3" fill="#1a1a1a"/>
<circle cx="88.5" cy="58.5" r="1.3" fill="#1a1a1a"/>
<circle cx="154.5" cy="82.5" r="1.3" fill="#1d5c5c"/>
<circle cx="97.5" cy="61.5" r="1.3" fill="#1d5c5c"/>
<circle cx="70.5" cy="76.5" r="1.3" fill="#9c1f3f"/>
<circle cx="49.5" cy="31.5" r="1.3" fill="#9c1f3f"/>
<circle cx="40.5" cy="88.5" r="1.3" fill="#9c1f3f"/>
<circle cx="118.5" cy="142.5" r="1.3" fill="#9c1f3f"/>
<circle cx="91.5" cy="73.5" r="1.3" fill="#9c1f3f"/>
<circle cx="145.5" cy="85.5" r="1.3" fill="#1d5c5c"/>
<circle cx="85.5" cy="61.5" r="1.3" fill="#9c1f3f"/>
<circle cx="64.5" cy="70.5" r="1.3" fill="#1d5c5c"/>
<circle cx="154.5" cy="76.5" r="1.3" fill="#1d5c5c"/>
<circle cx="121.5" cy="97.5" r="1.3" fill="#1d5c5c"/>
<circle cx="106.5" cy="88.5" r="1.3" fill="#1d5c5c"/>
<circle cx="61.5" cy="61.5" r="1.3" fill="#9c1f3f"/>
<circle cx="118.5" cy="118.5" r="1.3" fill="#9c1f3f"/>
<circle cx="79.5" cy="103.5" r="1.3" fill="#9c1f3f"/>
<circle cx="106.5" cy="76.5" r="1.3" fill="#1a1a1a"/>
<circle cx="79.5" cy="127.5" r="1.3" fill="#9c1f3f"/>
<circle cx="79.5" cy="109.5" r="1.3" fill="#9c1f3f"/>
<circle cx="133.5" cy="115.5" r="1.3" fill="#9c1f3f"/>
<circle cx="79.5" cy="79.5" r="1.3" fill="#9c1f3f"/>
<circle cx="64.5" cy="46.5" r="1.3" fill="#9c1f3f"/>
<circle cx="58.5" cy="70.5" r="1.3" fill="#9c1f3f"/>
<circle cx="58.5" cy="88.5" r="1.3" fill="#1d5c5c"/>
<circle cx="70.5" cy="118.5" r="1.3" fill="#9c1f3f"/>
<circle cx="103.5" cy="67.5" r="1.3" fill="#1d5c5c"/>
<circle cx="70.5" cy="88.5" r="1.3" fill="#1d5c5c"/>
<circle cx="40.5" cy="34.5" r="1.3" fill="#9c1f3f"/>
<circle cx="88.5" cy="100.5" r="1.3" fill="#9c1f3f"/>
<circle cx="70.5" cy="58.5" r="1.3" fill="#9c1f3f"/>
<circle cx="58.5" cy="58.5" r="1.3" fill="#9c1f3f"/>
<circle cx="52.5" cy="40.5" r="1.3" fill="#9c1f3f"/>
<circle cx="103.5" cy="73.5" r="1.3" fill="#9c1f3f"/>
<circle cx="106.5" cy="148.5" r="1.3" fill="#1d5c5c"/>
<circle cx="115.5" cy="67.5" r="1.3" fill="#1d5c5c"/>
<circle cx="82.5" cy="70.5" r="1.3" fill="#9c1f3f"/>
<circle cx="61.5" cy="43.5" r="1.3" fill="#1d5c5c"/>
<circle cx="133.5" cy="103.5" r="1.3" fill="#1d5c5c"/>
<circle cx="79.5" cy="61.5" r="1.3" fill="#1a1a1a"/>
<circle cx="61.5" cy="67.5" r="1.3" fill="#9c1f3f"/>
<circle cx="40.5" cy="46.5" r="1.3" fill="#9c1f3f"/>
<circle cx="115.5" cy="61.5" r="1.3" fill="#1d5c5c"/>
<circle cx="130.5" cy="64.5" r="1.3" fill="#1d5c5c"/>
<circle cx="61.5" cy="31.5" r="1.3" fill="#1d5c5c"/>
<circle cx="118.5" cy="94.5" r="1.3" fill="#9c1f3f"/>
<circle cx="70.5" cy="82.5" r="1.3" fill="#9c1f3f"/>
<circle cx="79.5" cy="121.5" r="1.3" fill="#9c1f3f"/>
<circle cx="79.5" cy="115.5" r="1.3" fill="#1a1a1a"/>
<circle cx="64.5" cy="106.5" r="1.3" fill="#1d5c5c"/>
<circle cx="88.5" cy="46.5" r="1.3" fill="#1d5c5c"/>
<circle cx="73.5" cy="67.5" r="1.3" fill="#9c1f3f"/>
<circle cx="97.5" cy="109.5" r="1.3" fill="#1d5c5c"/>
<circle cx="130.5" cy="82.5" r="1.3" fill="#9c1f3f"/>
<circle cx="88.5" cy="88.5" r="1.3" fill="#9c1f3f"/>
<circle cx="118.5" cy="88.5" r="1.3" fill="#9c1f3f"/>
<circle cx="52.5" cy="88.5" r="1.3" fill="#9c1f3f"/>
</g>
<clipPath id="clip-63"><rect x="0" y="63" width="200" height="9"/></clipPath>
<g clip-path="url(#clip-63)" transform="translate(5,0)">
<rect x="0" y="63" width="200" height="9" fill="#ffffff"/>
<circle cx="97.5" cy="67.5" r="1.3" fill="#d34d6e"/>
<circle cx="91.5" cy="67.5" r="1.3" fill="#d34d6e"/>
<circle cx="70.5" cy="64.5" r="1.3" fill="#d34d6e"/>
<circle cx="88.5" cy="64.5" r="1.3" fill="#d34d6e"/>
<circle cx="112.5" cy="70.5" r="1.3" fill="#d34d6e"/>
<circle cx="64.5" cy="70.5" r="1.3" fill="#d34d6e"/>
<circle cx="58.5" cy="70.5" r="1.3" fill="#d34d6e"/>
<circle cx="103.5" cy="67.5" r="1.3" fill="#d34d6e"/>
<circle cx="115.5" cy="67.5" r="1.3" fill="#d34d6e"/>
<circle cx="82.5" cy="70.5" r="1.3" fill="#d34d6e"/>
<circle cx="61.5" cy="67.5" r="1.3" fill="#d34d6e"/>
<circle cx="130.5" cy="64.5" r="1.3" fill="#d34d6e"/>
<circle cx="73.5" cy="67.5" r="1.3" fill="#d34d6e"/>
</g>
<rect x="0" y="62.6" width="200" height="0.8" fill="#9c1f3f" opacity="0.7"/>
<rect x="0" y="71.6" width="200" height="0.8" fill="#9c1f3f" opacity="0.7"/>
<clipPath id="clip-96"><rect x="0" y="96" width="200" height="8"/></clipPath>
<g clip-path="url(#clip-96)" transform="translate(-5,0)">
<rect x="0" y="96" width="200" height="8" fill="#ffffff"/>
<circle cx="103.5" cy="97.5" r="1.3" fill="#3fa0a0"/>
<circle cx="136.5" cy="100.5" r="1.3" fill="#3fa0a0"/>
<circle cx="154.5" cy="100.5" r="1.3" fill="#3fa0a0"/>
<circle cx="121.5" cy="97.5" r="1.3" fill="#3fa0a0"/>
<circle cx="79.5" cy="103.5" r="1.3" fill="#3fa0a0"/>
<circle cx="88.5" cy="100.5" r="1.3" fill="#3fa0a0"/>
<circle cx="133.5" cy="103.5" r="1.3" fill="#3fa0a0"/>
</g>
<rect x="0" y="95.6" width="200" height="0.8" fill="#1d5c5c" opacity="0.7"/>
<rect x="0" y="103.6" width="200" height="0.8" fill="#1d5c5c" opacity="0.7"/>
</svg>